# xmcd CD database file
# Copyright (C) 1996 Ti Kan
#
# Track frame offsets:
#	150
#	20849
#	43431
#	70750
# Disc length: 1129 seconds
#
# Revision: 1
# Processed by: cddbd v1.4PL0 Copyright (c) Steve Scherf et al.
# Submitted via: CDCOPY 4.744
#
DISCID=37046704
DTITLE=Boon - Pentascope
DYEAR=1900
DGENRE=
TTITLE0=Down
TTITLE1=Unique
TTITLE2=Mindset
TTITLE3=Unpredictable
EXTD=
EXTT0=
EXTT1=
EXTT2=
EXTT3=
PLAYORDER=
